<?xml version="1.0" encoding="iso-8859-1"?>
<!-- Generator: Adobe Illustrator 16.0.0, SVG Export Plug-In . SVG Version: 6.00 Build 0)  -->
<!DOCTYPE svg PUBLIC "-//W3C//DTD SVG 1.1//EN" "http://www.w3.org/Graphics/SVG/1.1/DTD/svg11.dtd">
<svg version="1.1" id="Layer_1" xmlns="http://www.w3.org/2000/svg" xmlns:xlink="http://www.w3.org/1999/xlink" x="0px" y="0px"
	 width="317px" height="177px" viewBox="0 0 317 177" style="enable-background:new 0 0 317 177;" xml:space="preserve">
<path style="fill:none;stroke:#D1D3D4;stroke-width:4;stroke-linecap:round;stroke-linejoin:round;stroke-miterlimit:10;stroke-dasharray:0,8;" d="
	M28.758,50.833H130 M28.763,58.701H123.5 M28.758,66.311H120 M28.763,74.179H112 M28.758,82.199h81.179 M28.763,90.067h81.179
	 M28.758,97.677h81.179 M28.763,105.545h81.179 M28.758,113.736h81.179 M28.763,121.604H117.5 M28.758,129.214H120 M28.763,137.082
	H125"/>
<path style="fill:none;stroke:#000000;stroke-width:2;stroke-miterlimit:10;" d="M78.779,59.691"/>
<g>
	<path style="fill:none;stroke:#000000;stroke-width:2;stroke-miterlimit:10;" d="M238.42,43.004h57.18V29.443h-54.666
		c0,0-3.834-22.078-12.885-22.078s-68.199,0-77.348,0c-9.15,0-14.434,22.078-14.434,22.078H18.6v13.561h118.289"/>
	<path style="fill:none;stroke:#000000;stroke-width:2;stroke-miterlimit:10;" d="M241.419,146.031
		c-4.893,5.259-10.546,9.793-16.788,13.439H295.6v-13.439H241.419z"/>
	<path style="fill:none;stroke:#000000;stroke-width:2;stroke-miterlimit:10;" d="M133.889,146.031H18.6v13.439h132.077
		C144.436,155.824,138.781,151.29,133.889,146.031z"/>
	<path style="fill:none;stroke:#000000;stroke-width:2;stroke-miterlimit:10;" d="M133.889,146.031
		c4.892,5.259,10.546,9.793,16.787,13.439"/>
	<path style="fill:none;stroke:#000000;stroke-width:2;stroke-miterlimit:10;" d="M224.632,159.47
		c6.241-3.646,11.895-8.18,16.788-13.439"/>
	<path style="fill:none;stroke:#000000;stroke-width:2;stroke-miterlimit:10;" d="M136.889,43.004H18.6v103.027h115.29"/>
	<path style="fill:none;stroke:#000000;stroke-width:2;stroke-miterlimit:10;" d="M241.419,146.031h54.18V43.004h-57.18"/>
</g>
<path style="fill:#FFFFFF;stroke:#000000;stroke-miterlimit:10;" d="M237.973,45.529c28.262,28.262,28.262,74.083,0,102.345
	c-28.261,28.262-74.082,28.262-102.344,0c-28.261-28.262-28.261-74.083,0.001-102.345C163.891,17.268,209.712,17.268,237.973,45.529
	z M238.75,44.751c-28.645-28.646-75.253-28.646-103.898,0s-28.646,75.254,0,103.899c28.645,28.646,75.255,28.646,103.898,0
	C267.396,120.005,267.395,73.397,238.75,44.751z M237.195,46.307c27.787,27.788,27.787,73.001,0,100.788
	c-27.787,27.788-73.001,27.788-100.789,0c-27.787-27.787-27.787-73,0.001-100.788C164.194,18.52,209.408,18.52,237.195,46.307z
	 M140.281,50.181c-25.691,25.692-25.691,67.348,0,93.04c25.692,25.692,67.348,25.692,93.041,0
	c25.691-25.692,25.691-67.348-0.002-93.04C207.629,24.489,165.974,24.489,140.281,50.181z M234.027,49.474
	c-26.04-26.041-68.412-26.041-94.453,0s-26.041,68.413,0,94.454s68.414,26.041,94.455,0S260.068,75.515,234.027,49.474z
	 M232.613,50.888c25.262,25.262,25.262,66.365,0.002,91.626c-25.262,25.262-66.365,25.262-91.627,0
	c-25.262-25.261-25.262-66.364,0-91.626C166.25,25.627,207.354,25.627,232.613,50.888z M162.314,70.911
	c-14.06,14.059-14.06,36.853,0,50.912c14.059,14.059,36.852,14.059,50.911,0c14.058-14.059,14.058-36.853,0-50.912
	C199.166,56.852,176.373,56.852,162.314,70.911z M213.933,70.204c-14.427-14.426-37.899-14.426-52.326,0s-14.427,37.899,0,52.326
	s37.899,14.426,52.326,0S228.359,84.63,213.933,70.204z M212.519,71.618c13.646,13.646,13.646,35.851,0,49.498
	c-13.646,13.646-35.852,13.646-49.497,0c-13.646-13.646-13.646-35.851,0-49.498C176.667,57.972,198.872,57.972,212.519,71.618z
	 M162.314,121.823l40.561,39.147 M213.226,121.823l38.079-38.08 M213.226,70.911L174.4,32.086 M162.314,70.911L121.7,111.525
	 M242.652,131.357l-56.362,1 M223.77,97.357V43.504 M151.787,95.357v57.437 M164.859,73.457c-12.652,12.653-12.652,33.167,0,45.82
	c12.653,12.653,33.168,12.653,45.82,0c12.653-12.653,12.653-33.167,0-45.82C198.027,60.804,177.513,60.804,164.859,73.457z
	 M211.316,72.821c-12.983-12.984-34.109-12.984-47.094,0c-12.983,12.983-12.983,34.109,0,47.093
	c12.984,12.984,34.11,12.984,47.094,0C224.301,106.93,224.301,85.804,211.316,72.821z M210.044,74.093
	c12.281,12.282,12.281,32.266,0,44.548c-12.282,12.281-32.267,12.281-44.548,0c-12.281-12.282-12.281-32.266,0-44.548
	S197.762,61.812,210.044,74.093z"/>
<path style="fill:none;stroke:#D1D3D4;stroke-width:4;stroke-linecap:round;stroke-linejoin:round;stroke-miterlimit:10;stroke-dasharray:0,8;" d="
	M289,137.082h-30.742 M288.999,129.214h-28.767 M289,121.604h-27.706 M288.999,113.736h-25.275 M289,105.716h-24.65 M288.999,97.848
	h-24.65 M289,90.238h-24.65 M288.999,82.37h-24.65 M289,74.179h-24.65 M288.999,66.311h-26.945 M289,58.701h-27.706 M288.999,50.833
	h-29.222"/>
</svg>
