<?xml version="1.0" encoding="iso-8859-1"?>
<!-- Generator: Adobe Illustrator 16.0.0, SVG Export Plug-In . SVG Version: 6.00 Build 0)  -->
<!DOCTYPE svg PUBLIC "-//W3C//DTD SVG 1.1//EN" "http://www.w3.org/Graphics/SVG/1.1/DTD/svg11.dtd">
<svg version="1.1" id="Layer_1" xmlns="http://www.w3.org/2000/svg" xmlns:xlink="http://www.w3.org/1999/xlink" x="0px" y="0px"
	 width="163.597px" height="329.667px" viewBox="0 0 163.597 329.667" style="enable-background:new 0 0 163.597 329.667;"
	 xml:space="preserve">
<text transform="matrix(1 0 0 1 306 396)" style="font-family:'MyriadPro-Regular'; font-size:12;">draw_camera</text>
<path style="fill:none;stroke:#414042;stroke-width:2;stroke-miterlimit:10;" d="M4.686,62.749H3.812
	C3.363,62.749,3,62.386,3,61.937v-11.5c0-0.448,0.363-0.812,0.812-0.812h0.875V62.749z M4.686,79.392H3.812
	C3.363,79.392,3,79.755,3,80.203v9.27c0,0.447,0.363,0.812,0.812,0.812h0.875V79.392z M4.686,106.316H3.812
	c-0.449,0-0.812,0.363-0.812,0.812v9.269c0,0.447,0.363,0.812,0.812,0.812h0.875V106.316z M131.808,3.691
	c0-0.449-0.363-0.813-0.813-0.813h-22.73c-0.447,0-0.812,0.364-0.812,0.813v1.08h24.355V3.691z M145.744,50.248H15.853v230.555
	h129.891V50.248z M157.124,26.709c0-12.33-9.995-22.325-24.154-22.325H24.983c-10.5,0-20.495,9.995-20.495,22.325v277.633
	c0,12.33,9.995,22.325,22.325,22.325h107.986c12.33,0,22.325-9.995,22.325-22.325V26.709z M81.11,289.62
	c-7.686,0-13.911,6.229-13.911,13.911c0,7.686,6.226,13.914,13.911,13.914c7.683,0,13.912-6.229,13.912-13.914
	C95.022,295.849,88.793,289.62,81.11,289.62z M94.819,32.399c0-1.681-1.362-3.043-3.043-3.043H70.262
	c-1.681,0-3.044,1.363-3.044,3.043l0,0c0,1.682,1.363,3.044,3.044,3.044h21.515C93.457,35.443,94.819,34.081,94.819,32.399
	L94.819,32.399z M86.751,301.151c0-1.681-1.362-3.044-3.044-3.044h-5.005c-1.681,0-3.046,1.363-3.046,3.044v5.005
	c0,1.683,1.365,3.046,3.046,3.046h5.005c1.682,0,3.044-1.363,3.044-3.046V301.151z M81.001,17.424c-1.569,0-2.84,1.272-2.84,2.84
	c0,1.57,1.271,2.842,2.84,2.842c1.568,0,2.841-1.272,2.841-2.842C83.842,18.696,82.569,17.424,81.001,17.424z"/>
</svg>
